<svg xmlns="http://www.w3.org/2000/svg" xmlns:xlink="http://www.w3.org/1999/xlink" viewBox="0 0 114 114"><defs/><defs><path id="a" d="M52.4 0a28.4 28.4 0 0128.1 31.7l-72.1 59A28.6 28.6 0 0125.8 42c.5 0 1-1.1.9-1.7A28.6 28.6 0 0152.4 0z"/></defs><g fill="none" fill-rule="evenodd"><g transform="translate(5.2 .6)"><path fill="#201D2D" d="M51.8 96.3c.6-.5 1.3-.4 2 .1 2.9 2.3 10 8.4 17.6 15.4.3.3 0 .8-.4.8l-37.2-.3c-.5 0-.6-.6-.3-1 7.4-6.2 15.3-12.4 18.3-15zM52.4 0a28.4 28.4 0 0125.7 40.5c-.2.5.3 1.5.8 1.5 14 1.7 25 13.7 25 28.4a28.1 28.1 0 01-50.8 17.3c-.4-.6-2-.6-2.3 0A28.1 28.1 0 010 70.4c0-15 11.4-27.2 25.8-28.4.5 0 1-1.1.9-1.7A28.6 28.6 0 0152.4 0z"/><use fill="#FFF" opacity=".1" xlink:href="#a"/></g></g></svg>